<?xml version="1.0" encoding="UTF-8"?>
<svg xmlns="http://www.w3.org/2000/svg" xmlns:xlink="http://www.w3.org/1999/xlink" width="84px" height="32px" viewBox="0 0 84 32" version="1.1">
<g id="surface1">
<path style=" stroke:none;fill-rule:nonzero;fill:rgb(100%,100%,100%);fill-opacity:1;" d="M 5.429688 29.421875 L 6.960938 29.421875 C 7.25 29.421875 7.480469 29.21875 7.480469 28.96875 C 7.480469 28.71875 7.261719 28.519531 6.960938 28.519531 L 4.578125 28.519531 L 4.578125 30.328125 L 4.980469 29.671875 C 5.078125 29.511719 5.25 29.421875 5.429688 29.421875 Z M 5.429688 29.421875 "/>
<path style=" stroke:none;fill-rule:nonzero;fill:rgb(100%,100%,100%);fill-opacity:1;" d="M 5.429688 27.621094 L 6.980469 27.621094 C 7.261719 27.621094 7.480469 27.488281 7.480469 27.28125 C 7.480469 27.070312 7.261719 26.941406 6.980469 26.941406 L 4.578125 26.941406 L 4.578125 28.53125 L 4.980469 27.871094 C 5.078125 27.710938 5.25 27.621094 5.429688 27.621094 Z M 5.429688 27.621094 "/>
<path style=" stroke:none;fill-rule:nonzero;fill:rgb(100%,100%,100%);fill-opacity:1;" d="M 1.558594 0.0507812 L 1.558594 31.941406 L 33.449219 31.941406 L 33.449219 0.0507812 Z M 11.78125 10.269531 L 18.628906 10.269531 C 20.398438 10.269531 23.238281 10.550781 23.238281 13.28125 C 23.238281 14.621094 22.25 15.558594 21.089844 15.910156 C 22.53125 16.421875 23.238281 17.359375 23.238281 18.648438 C 23.238281 21.460938 20.539062 21.730469 18.628906 21.738281 L 16.308594 21.738281 L 16.308594 19.898438 C 16.308594 18.898438 17.171875 18.921875 17.171875 18.921875 L 19.261719 18.910156 C 19.75 18.910156 19.910156 18.511719 19.910156 18.511719 L 20.660156 17.050781 L 17.171875 17.058594 C 16.378906 17.128906 16.308594 18.070312 16.308594 18.070312 L 16.308594 15.660156 C 16.308594 14.578125 17.210938 14.550781 17.210938 14.550781 L 19.820312 14.550781 C 20.359375 14.550781 20.519531 14.21875 20.519531 14.21875 L 21.308594 12.691406 L 14.179688 12.691406 L 14.179688 21.71875 L 11.78125 21.71875 Z M 6.988281 30.320312 L 3.191406 30.320312 L 3.191406 26.019531 L 6.988281 26.019531 C 7.769531 26.019531 9.03125 26.128906 9.03125 27.148438 C 9.03125 27.648438 8.589844 28.011719 8.078125 28.128906 C 8.71875 28.320312 9.03125 28.671875 9.03125 29.160156 C 9.03125 30.21875 7.828125 30.320312 6.988281 30.320312 Z M 14.28125 30.320312 L 13.839844 29.550781 L 11.410156 29.550781 L 11.808594 28.890625 C 11.910156 28.738281 12.078125 28.648438 12.261719 28.648438 L 13.308594 28.648438 L 12.390625 27.050781 L 10.511719 30.308594 L 8.878906 30.308594 L 11.511719 26.011719 L 13.300781 26.011719 L 15.921875 30.308594 L 14.28125 30.308594 Z M 19.011719 30.320312 L 16.691406 30.320312 C 16.511719 30.320312 16.339844 30.230469 16.238281 30.078125 L 15.839844 29.421875 L 18.46875 29.421875 C 18.789062 29.421875 19.039062 29.269531 19.039062 28.949219 L 19.039062 26.019531 L 20.429688 26.019531 L 20.429688 29.078125 C 20.429688 30.011719 19.808594 30.320312 19.011719 30.320312 Z M 25.691406 30.320312 L 25.25 29.550781 L 22.820312 29.550781 L 23.21875 28.890625 C 23.320312 28.738281 23.488281 28.648438 23.671875 28.648438 L 24.71875 28.648438 L 23.800781 27.058594 L 21.921875 30.320312 L 20.28125 30.320312 L 22.910156 26.019531 L 24.699219 26.019531 L 27.320312 30.320312 Z M 31.828125 29.089844 C 31.828125 30.019531 31.21875 30.328125 30.410156 30.328125 L 28.101562 30.328125 C 27.921875 30.328125 27.75 30.238281 27.648438 30.089844 L 27.25 29.429688 L 29.871094 29.429688 C 30.191406 29.429688 30.449219 29.28125 30.449219 28.960938 L 30.449219 26.03125 L 31.839844 26.03125 L 31.839844 29.089844 Z M 31.828125 29.089844 "/>
<path style=" stroke:none;fill-rule:nonzero;fill:rgb(100%,100%,100%);fill-opacity:1;" d="M 78.988281 19.089844 L 82.441406 12.910156 L 80.089844 12.910156 L 77.699219 17.601562 L 75.320312 12.910156 L 72.96875 12.910156 L 76.421875 19.089844 "/>
<path style=" stroke:none;fill-rule:nonzero;fill:rgb(100%,100%,100%);fill-opacity:1;" d="M 43.328125 12.910156 L 45.328125 12.910156 L 45.328125 19.101562 L 43.328125 19.101562 Z M 43.328125 12.910156 "/>
<path style=" stroke:none;fill-rule:nonzero;fill:rgb(100%,100%,100%);fill-opacity:1;" d="M 50.929688 12.910156 L 50.929688 16.371094 L 48.550781 12.910156 L 46.171875 12.910156 L 46.171875 19.089844 L 48.171875 19.089844 L 48.171875 15.660156 L 48.191406 15.691406 L 50.53125 19.089844 L 52.929688 19.089844 L 52.929688 12.910156 Z M 50.929688 12.910156 "/>
<path style=" stroke:none;fill-rule:nonzero;fill:rgb(100%,100%,100%);fill-opacity:1;" d="M 73.609375 19.089844 L 72.171875 16.679688 L 72.058594 16.480469 C 72.351562 16.339844 72.601562 16.128906 72.789062 15.859375 C 72.988281 15.570312 73.101562 15.21875 73.089844 14.871094 C 73.089844 14.621094 73.039062 14.371094 72.949219 14.128906 C 72.859375 13.890625 72.71875 13.679688 72.53125 13.488281 C 72.339844 13.300781 72.109375 13.148438 71.851562 13.050781 C 71.558594 12.941406 71.25 12.890625 70.941406 12.890625 L 67.160156 12.890625 L 67.660156 14.171875 L 70.179688 14.171875 C 70.359375 14.160156 70.539062 14.230469 70.671875 14.359375 C 70.789062 14.480469 70.851562 14.628906 70.851562 14.800781 C 70.851562 14.96875 70.789062 15.140625 70.671875 15.269531 C 70.539062 15.398438 70.359375 15.53125 70.179688 15.53125 L 68.128906 15.53125 L 68.589844 16.800781 L 69.941406 16.800781 L 71.238281 19.089844 Z M 73.609375 19.089844 "/>
<path style=" stroke:none;fill-rule:nonzero;fill:rgb(100%,100%,100%);fill-opacity:1;" d="M 60.089844 17.140625 C 60.089844 16.738281 59.941406 15.578125 58.160156 15.261719 C 57.988281 15.21875 57.761719 15.210938 57.671875 15.210938 C 57.429688 15.199219 57.101562 15.179688 56.671875 15.199219 L 56.558594 15.199219 C 56.339844 15.199219 55.808594 15.148438 55.800781 14.710938 C 55.800781 14.710938 55.769531 14.25 56.421875 14.210938 C 56.421875 14.210938 59.839844 14.199219 59.839844 14.199219 L 59.839844 12.898438 C 59.839844 12.898438 56.910156 12.898438 55.941406 12.898438 C 55.261719 12.898438 53.789062 12.910156 53.609375 14.339844 C 53.609375 14.339844 53.609375 14.351562 53.609375 14.371094 C 53.609375 14.378906 53.609375 14.390625 53.609375 14.410156 C 53.601562 14.46875 53.601562 14.570312 53.601562 14.648438 C 53.609375 14.949219 53.738281 15.828125 55.019531 16.230469 C 55.019531 16.230469 55.511719 16.429688 56.398438 16.480469 C 56.398438 16.480469 57.058594 16.480469 57.160156 16.480469 C 57.160156 16.480469 57.640625 16.488281 57.789062 16.800781 C 57.789062 16.800781 58.199219 17.53125 57.25 17.75 C 57.191406 17.761719 57.03125 17.769531 56.890625 17.769531 L 53.988281 17.769531 L 53.988281 19.078125 L 57.238281 19.078125 C 57.238281 19.078125 59.789062 19.128906 60.070312 17.488281 C 60.089844 17.351562 60.089844 17.179688 60.089844 17.140625 Z M 60.089844 17.140625 "/>
<path style=" stroke:none;fill-rule:nonzero;fill:rgb(100%,100%,100%);fill-opacity:1;" d="M 36.640625 12.910156 L 36.640625 19.101562 L 38.640625 19.101562 L 38.640625 16.601562 L 40.378906 16.578125 C 40.78125 16.578125 40.910156 16.308594 40.910156 16.308594 L 41.519531 15.308594 L 38.648438 15.320312 L 38.648438 14.941406 C 38.691406 14.210938 39.378906 14.179688 39.378906 14.179688 L 41.480469 14.179688 C 41.921875 14.191406 42.050781 13.960938 42.050781 13.960938 L 42.691406 12.910156 Z M 36.640625 12.910156 "/>
<path style=" stroke:none;fill-rule:nonzero;fill:rgb(100%,100%,100%);fill-opacity:1;" d="M 62.75 14.96875 L 62.75 15.320312 L 65.621094 15.308594 L 65.011719 16.308594 C 65.011719 16.308594 64.878906 16.578125 64.480469 16.578125 L 62.769531 16.601562 L 62.789062 17.171875 C 62.789062 17.171875 62.789062 17.230469 62.808594 17.28125 C 62.921875 17.570312 63.191406 17.78125 63.519531 17.78125 L 66 17.808594 L 66.53125 17.808594 L 66.53125 19.101562 L 60.75 19.101562 L 60.75 12.910156 L 66.53125 12.910156 L 66.53125 14.191406 L 63.519531 14.199219 C 63.089844 14.199219 62.75 14.550781 62.75 14.96875 Z M 62.75 14.96875 "/>
</g>
</svg>
